{"title":"Bloodline.S01.720p.BluRay.X264-REWARD [Season 1 One Complete]","uid":15599994,"size":34032776940,"categoryP":"video","categoryS":"hd___tv_shows","magnet":"?xt=urn:btih:86ef94cb809d408c3f0166d5b5c83714d05950a0&amp;dn=Bloodline.S01.720p.BluRay.X264-REWARD+%5BSeason+1+One+Complete%5D&amp;tr=udp%3A%2F%2Ftracker.leechers-paradise.org%3A6969&amp;tr=udp%3A%2F%2Fzer0day.ch%3A1337&amp;tr=udp%3A%2F%2Fopen.demonii.com%3A1337&amp;tr=udp%3A%2F%2Ftracker.coppersurfer.tk%3A6969&amp;tr=udp%3A%2F%2Fexodus.desync.com%3A6969","seeders":1,"leechers":5,"uploader":"GoodFilms","files":41,"time":1471621634,"description":"http://www.imdb.com/title/tt3520702/\r\n\r\nVideo\r\nID                                       : 1\r\nFormat                                   : AVC\r\nFormat/Info                              : Advanced Video Codec\r\nFormat profile                           :   \r\nFormat settings, CABAC                   : Yes\r\nFormat settings, ReFrames                : 5 frames\r\nCodec ID                                 : V_MPEG4/ISO/AVC\r\nDuration                                 : 58mn 0s\r\nBit rate                                 : 5 018 Kbps\r\nWidth                                    : 1 280 pixels\r\nHeight                                   : 720 pixels\r\nDisplay aspect ratio                     : 16:9\r\nFrame rate mode                          : Constant\r\nFrame rate                               : 23.976 (24000/1001) fps\r\nColor space                              : YUV\r\nChroma subsampling                       : 4:2:0\r\nBit depth                                : 8 bits\r\nScan type                                : Progressive\r\nBits/(Pixel*Frame)                       : 0.227\r\nStream size                              : 1.98 GiB (75%)\r\nWriting library                          : x264 core 148 r2665 a01e339\r\nLanguage                                 : English\r\nDefault                                  : Yes\r\nForced                                   : No\r\nStatistics Tags Issue                    : no_variable_data 1970-01-01 00:00:00 / no_variable_data 2010-02-22 21:41:29\r\nFromStats_BitRate                        : 5017056\r\nFromStats_Duration                       : 00:58:00.477000000\r\nFromStats_FrameCount                     : 83448\r\nFromStats_StreamSize                     : 2182718503\r\n\r\nAudio\r\nID                                       : 2\r\nFormat                                   : DTS\r\nFormat/Info                              : Digital Theater Systems\r\nMode                                     : 16\r\nFormat settings, Endianness              : Big\r\nCodec ID                                 : A_DTS\r\nDuration                                 : 58mn 0s\r\nBit rate mode                            : Constant\r\nBit rate                                 : 1 509 Kbps\r\nChannel(s)                               : 6 channels\r\nChannel positions                        : Front: L C R, Side: L R, LFE\r\nSampling rate                            : 48.0 KHz\r\nFrame rate                               : 93.750 fps (512 spf)\r\nBit depth                                : 24 bits\r\nCompression mode                         : Lossy\r\nStream size                              : 626 MiB (23%)\r\nLanguage                                 : English\r\nDefault                                  : Yes\r\nForced                                   : No\r\nStatistics Tags Issue                    : no_variable_data 1970-01-01 00:00:00 / no_variable_data 2010-02-22 21:41:29\r\nFromStats_BitRate                        : 1509000\r\nFromStats_Duration                       : 00:58:00.480000000\r\nFromStats_FrameCount                     : 326295\r\nFromStats_StreamSize                     : 656505540\r\n\r\nText #1\r\nID                                       : 3\r\nFormat                                   : UTF-8\r\nCodec ID                                 : S_TEXT/UTF8\r\nCodec ID/Info                            : UTF-8 Plain Text\r\nLanguage                                 : English\r\nDefault                                  : No\r\nForced                                   : No\r\nStatistics Tags Issue                    : no_variable_data 1970-01-01 00:00:00 / no_variable_data 2010-02-22 21:41:29\r\nFromStats_BitRate                        : 64\r\nFromStats_Duration                       : 00:55:14.226000000\r\nFromStats_FrameCount                     : 758\r\nFromStats_StreamSize                     : 26815\r\n\r\nText #2\r\nID                                       : 4\r\nFormat                                   : UTF-8\r\nCodec ID                                 : S_TEXT/UTF8\r\nCodec ID/Info                            : UTF-8 Plain Text\r\nTitle                                    : SDH\r\nLanguage                                 : English\r\nDefault                                  : No\r\nForced                                   : No\r\nStatistics Tags Issue                    : no_variable_data 1970-01-01 00:00:00 / no_variable_data 2010-02-22 21:41:29\r\nFromStats_BitRate                        : 71\r\nFromStats_Duration                       : 00:57:44.668000000\r\nFromStats_FrameCount                     : 906\r\nFromStats_StreamSize                     : 31031\r\n\r\nMenu\r\n00:00:00.000                             : en:00:00:00.000\r\n00:01:16.493                             : en:00:01:16.493\r\n00:08:56.536                             : en:00:08:56.536\r\n00:19:01.849                             : en:00:19:01.849\r\n00:29:38.944                             : en:00:29:38.944\r\n00:40:18.166                             : en:00:40:18.166\r\n00:50:40.454                             : en:00:50:40.454\r\n00:56:48.780                             : en:00:56:48.780","torrent":{"xt":"urn:btih:86ef94cb809d408c3f0166d5b5c83714d05950a0","amp;dn":"Bloodline.S01.720p.BluRay.X264-REWARD+%5BSeason+1+One+Complete%5D","amp;tr":["udp%3A%2F%2Ftracker.leechers-paradise.org%3A6969","udp%3A%2F%2Fzer0day.ch%3A1337","udp%3A%2F%2Fopen.demonii.com%3A1337","udp%3A%2F%2Ftracker.coppersurfer.tk%3A6969","udp%3A%2F%2Fexodus.desync.com%3A6969"],"infoHash":"86ef94cb809d408c3f0166d5b5c83714d05950a0","infoHashBuffer":{"type":"Buffer","data":[134,239,148,203,128,157,64,140,63,1,102,213,181,200,55,20,208,89,80,160]},"announce":[],"urlList":[]}}